# xmcd CD database file
#
# Track frame offsets:
#	150
#	17120
#	34970
#	57427
#	77093
#	93949
#	110538
#	131267
#	152550
#	171290
#	188153
#	205657
#	225207
#	237980
#	251631
#	273214
#	288979
#
# Disc length: 4091 seconds
#
# Revision: 0
# Processed by: cddbd v1.5.2PL0 Copyright (c) Steve Scherf et al.
# Submitted via: CDex 1.70beta3
#
DISCID=db0ff911
DTITLE=Albert King - The Definitive Albert King On Stax [CD2)
DYEAR=2011
DGENRE=Blues
TTITLE0=Everybody Wants To Go To Heaven
TTITLE1=She Caught The Katy And Left Me A Mule To Ride
TTITLE2=Tell Me What True Love Is
TTITLE3=Angel Of Mercy
TTITLE4=I'll Play The Blues For You (Pt.1)
TTITLE5=Breaking Up Somebody's Home
TTITLE6=Answer To The Laundromat Blues
TTITLE7=Match Box Blues (Wattsstax)
TTITLE8=I Wanna Get Funky
TTITLE9=Playing On Me
TTITLE10=That's What The Blues Is All About
TTITLE11=Flat Tire
TTITLE12=Crosscut Saw [1974 version]
TTITLE13=Santa Claus Wants Some Loving
TTITLE14=Drivin' Wheel
TTITLE15=I'm Doing Fine
TTITLE16=Dust My Broom
EXTD=YEAR: 2011
EXTT0=
EXTT1=
EXTT2=
EXTT3=
EXTT4=
EXTT5=
EXTT6=
EXTT7=
EXTT8=
EXTT9=
EXTT10=
EXTT11=
EXTT12=
EXTT13=
EXTT14=
EXTT15=
EXTT16=
PLAYORDER=
